<svg version="1.1" xmlns="http://www.w3.org/2000/svg" viewBox="0 0 2500 2500" width="100" height="100">
<style type="text/css">
	.st0{fill:rgba(123, 74, 226, 0.1);}
	.st1{fill:#FFFFFF;}
</style>
<path class="st0" d="M2350.5,739.1c0-41.4-8.8-78.7-27.1-109.8c-17.6-31.2-44.1-57-79.3-77.3c-292.9-168.8-586.5-337.7-879.4-506.5
	c-79.3-45.4-155.3-44.1-233.9,2C1014,116,429.5,450.9,256,551.9C184.1,593.3,149.5,657,149.5,739.8v1019.8
	c0,40.7,8.8,76.6,25.8,107.8c17.6,31.9,44.8,59,80.7,80c174.3,101,758.1,435.3,874.7,504.5c78.7,46.1,155.3,48.1,233.9,2
	c292.9-169.5,586.5-337.7,879.4-506.5c36.6-21,63.1-47.5,80.7-80c17-31.2,25.8-67.1,25.8-107.8L2350.5,739.1z"/>
<g>
	<path class="st1" d="M1566.7,1427.3c-62.4,110.5-181,185.8-317.3,185.8c-135.6,0-253.6-73.9-316-183.8
		c-30.5-53.6-48.1-114.6-48.1-180.4c0-201.4,162.7-364.1,364.1-364.1c134.3,0,251.6,73.2,314.6,181.7l318-183.1
		C1755.2,665.2,1519.2,518,1248.6,518c-404.1,0-730.9,327.5-730.9,730.9c0,132.2,35.3,257,97,364.1
		c126.1,219,363.4,366.8,634.7,366.8c271.9,0,509.2-148.5,635.3-368.9L1566.7,1427.3z M1968.7,1076.1h-72.6v350.6h72.6V1076.1z
		 M2129.4,1076.1h-72.6v350.6h72.6V1076.1z"/>
	<path class="st1" d="M2188.4,1135.1h-350.6v72.6h350.6L2188.4,1135.1z M2188.4,1295.1h-350.6v72.6h350.6L2188.4,1295.1z"/>
</g>
</svg>
