<?xml version="1.0" encoding="utf-8"?>
<svg version="1.1" xmlns="http://www.w3.org/2000/svg" viewBox="0 0 76 64" width="64" height="64">
<g>
	<circle shape-rendering="crispEdges" class="st0" cx="55" cy="21.5" r="20" fill="#7B4AE2" fill-opacity="0.2"/>
</g>
<path class="st1" d="M69.6,10.5C69.5,10.2,69.3,10,69,10L37.8,0c-0.1,0-0.3,0-0.4,0L6.2,10c-0.3,0.1-0.5,0.3-0.6,0.6
	c0,0,0,0.1,0,0.1v42.7c0,0,0,0.1,0,0.1c0.1,0.3,0.2,0.5,0.5,0.5l0.1,0l31.2,9.9l0.1,0c0.1,0,0.3,0,0.4,0l0.1,0L69.1,54
	c0.3-0.1,0.5-0.4,0.5-0.7V10.7C69.6,10.6,69.6,10.6,69.6,10.5z M37.6,1.5l28.9,9.2l-28.9,9.2L8.7,10.7L37.6,1.5z M7,11.6l29.9,9.5
	v41.2L7,52.8V11.6z M68.2,52.8l-29.9,9.5V21.1l29.9-9.5V52.8z" fill="rgba(123, 74, 226, 0.5)"/>
</svg>
