<?xml version="1.0" encoding="utf-8"?>
<svg version="1.1" id="Слой_1" xmlns="http://www.w3.org/2000/svg" xmlns:xlink="http://www.w3.org/1999/xlink" x="0px" y="0px"
	 viewBox="0 0 656 611" style="enable-background:new 0 0 656 611;" xml:space="preserve">
<g filter="url(#filter0_d_0_1)">
<circle cx="570.143" cy="331.11" r="35.8102" fill="#090E16"/>
</g>
<g clip-path="url(#clip0_0_1)">
<path fill-rule="evenodd" clip-rule="evenodd" d="M585.251 313.205H555.036C553.491 313.205 552.238 314.458 552.238 316.003V346.218C552.238 347.763 553.491 349.015 555.036 349.015H585.251C586.796 349.015 588.049 347.763 588.049 346.218V316.003C588.049 314.458 586.796 313.205 585.251 313.205ZM573.293 345.112V341.248C573.994 341.836 574.755 342.277 575.577 342.57C576.399 342.864 577.229 343.011 578.066 343.011C578.558 343.011 578.987 342.967 579.353 342.878C579.72 342.79 580.026 342.667 580.272 342.51C580.517 342.353 580.701 342.168 580.821 341.955C580.942 341.741 581.003 341.51 581.003 341.26C581.003 340.922 580.906 340.621 580.713 340.355C580.519 340.089 580.256 339.844 579.921 339.618C579.587 339.393 579.19 339.176 578.731 338.967C578.272 338.757 577.776 338.544 577.245 338.327C575.891 337.763 574.882 337.075 574.218 336.262C573.553 335.449 573.221 334.467 573.221 333.316C573.221 332.415 573.402 331.64 573.765 330.992C574.127 330.344 574.621 329.811 575.245 329.392C575.869 328.974 576.592 328.666 577.414 328.469C578.236 328.271 579.106 328.173 580.024 328.173C580.926 328.173 581.726 328.227 582.423 328.336C583.119 328.444 583.762 328.611 584.35 328.837V332.447C584.06 332.246 583.744 332.068 583.401 331.916C583.059 331.763 582.706 331.636 582.344 331.535C581.981 331.434 581.621 331.36 581.262 331.312C580.904 331.264 580.564 331.239 580.241 331.239C579.798 331.239 579.396 331.282 579.033 331.366C578.671 331.451 578.364 331.569 578.115 331.722C577.865 331.875 577.672 332.058 577.535 332.272C577.398 332.485 577.329 332.724 577.329 332.99C577.329 333.28 577.406 333.539 577.559 333.769C577.712 333.998 577.929 334.216 578.211 334.421C578.493 334.626 578.836 334.827 579.238 335.024C579.641 335.222 580.096 335.425 580.604 335.634C581.297 335.924 581.919 336.232 582.471 336.558C583.023 336.884 583.496 337.252 583.891 337.663C584.285 338.073 584.587 338.542 584.797 339.069C585.006 339.596 585.111 340.21 585.111 340.91C585.111 341.876 584.928 342.687 584.561 343.343C584.195 343.999 583.697 344.53 583.069 344.937C582.441 345.343 581.71 345.635 580.876 345.812C580.042 345.989 579.162 346.078 578.236 346.078C577.285 346.078 576.381 345.997 575.523 345.836C574.665 345.675 573.922 345.434 573.293 345.112ZM571.822 331.634H566.854V345.798H562.918V331.634H557.974V328.452H571.822V331.634Z" fill="#7B4AE2" fill-opacity="0.5"/>
</g>
<g filter="url(#filter1_d_0_1)">
<circle cx="85.8102" cy="239.794" r="35.8102" fill="#090E16"/>
</g>
<path d="M99.2074 233.496C98.7899 233.352 98.3572 233.216 97.9117 233.088C97.9849 232.789 98.0521 232.494 98.1119 232.204C99.0927 227.443 98.4514 223.608 96.2617 222.345C94.1619 221.134 90.728 222.396 87.26 225.415C86.9265 225.705 86.592 226.012 86.2577 226.334C86.035 226.121 85.8126 225.915 85.5908 225.718C81.9562 222.491 78.313 221.131 76.1254 222.397C74.0277 223.612 73.4065 227.217 74.2893 231.729C74.3746 232.165 74.4742 232.61 74.5869 233.063C74.0713 233.209 73.5735 233.365 73.0973 233.531C68.836 235.017 66.1146 237.345 66.1146 239.76C66.1146 242.255 69.036 244.757 73.4745 246.274C73.8247 246.393 74.1882 246.507 74.5627 246.614C74.4411 247.103 74.3354 247.583 74.2466 248.051C73.4048 252.484 74.0622 256.005 76.1543 257.211C78.3153 258.458 81.942 257.177 85.4735 254.09C85.7526 253.846 86.0327 253.587 86.3133 253.316C86.6771 253.666 87.0402 253.997 87.4014 254.308C90.8221 257.252 94.2006 258.441 96.2907 257.231C98.4496 255.981 99.1511 252.199 98.2403 247.598C98.1707 247.246 98.0898 246.887 97.9988 246.522C98.2535 246.447 98.5036 246.369 98.7474 246.288C103.362 244.759 106.364 242.288 106.364 239.76C106.364 237.336 103.554 234.992 99.2074 233.496ZM98.2066 244.656C97.9865 244.729 97.7607 244.799 97.5306 244.868C97.0212 243.255 96.3337 241.54 95.4924 239.769C96.2953 238.039 96.9562 236.346 97.4513 234.744C97.863 234.863 98.2626 234.989 98.6477 235.122C102.372 236.404 104.644 238.3 104.644 239.76C104.644 241.316 102.191 243.336 98.2066 244.656ZM96.5535 247.932C96.9563 249.966 97.0138 251.806 96.747 253.244C96.5073 254.536 96.0252 255.398 95.4292 255.743C94.1607 256.477 91.4482 255.522 88.5228 253.005C88.1874 252.716 87.8496 252.408 87.5108 252.082C88.6449 250.842 89.7783 249.4 90.8846 247.798C92.8303 247.626 94.6686 247.344 96.3357 246.958C96.4178 247.289 96.4907 247.614 96.5535 247.932ZM79.8364 255.616C78.5971 256.053 77.6101 256.066 77.0135 255.722C75.7439 254.99 75.2161 252.163 75.936 248.371C76.0185 247.937 76.1166 247.491 76.2298 247.035C77.8785 247.4 79.7034 247.662 81.6538 247.82C82.7675 249.387 83.9337 250.828 85.1089 252.089C84.8521 252.337 84.5963 252.573 84.342 252.795C82.7804 254.16 81.2155 255.129 79.8364 255.616ZM74.0305 244.647C72.068 243.976 70.4472 243.104 69.3362 242.153C68.338 241.298 67.8339 240.449 67.8339 239.76C67.8339 238.295 70.019 236.425 73.6632 235.155C74.1054 235.001 74.5683 234.855 75.0487 234.719C75.5523 236.357 76.213 238.07 77.0103 239.802C76.2027 241.56 75.5326 243.3 75.024 244.958C74.6816 244.859 74.3498 244.756 74.0305 244.647ZM75.9767 231.399C75.2203 227.533 75.7227 224.617 76.9868 223.886C78.3333 223.106 81.3109 224.217 84.4491 227.004C84.6497 227.182 84.8511 227.369 85.0531 227.561C83.8836 228.817 82.7281 230.247 81.6243 231.804C79.7314 231.98 77.9194 232.262 76.2534 232.639C76.1487 232.218 76.0559 231.804 75.9767 231.399ZM93.3383 235.686C92.9401 234.998 92.5312 234.327 92.1144 233.673C93.3986 233.836 94.629 234.051 95.7844 234.315C95.4375 235.427 95.0052 236.589 94.4962 237.781C94.1311 237.087 93.745 236.389 93.3383 235.686ZM86.2583 228.79C87.0514 229.649 87.8456 230.609 88.6268 231.65C87.8396 231.612 87.0427 231.593 86.2391 231.593C85.4432 231.593 84.6521 231.612 83.8697 231.648C84.6517 230.617 85.4528 229.659 86.2583 228.79ZM79.1329 235.698C78.7351 236.388 78.3561 237.083 77.9968 237.779C77.496 236.592 77.0677 235.424 76.7178 234.297C77.8662 234.04 79.0907 233.83 80.3668 233.67C79.9441 234.33 79.5318 235.006 79.1329 235.698V235.698ZM80.4035 245.973C79.0852 245.826 77.8422 245.627 76.6941 245.377C77.0496 244.229 77.4874 243.036 77.9987 241.823C78.359 242.519 78.7395 243.215 79.1397 243.906H79.1398C79.5475 244.61 79.9699 245.3 80.4035 245.973ZM86.3059 250.852C85.491 249.972 84.6781 249 83.8842 247.953C84.6549 247.984 85.4406 247.999 86.2391 247.999C87.0595 247.999 87.8705 247.981 88.6687 247.945C87.885 249.01 87.0936 249.984 86.3059 250.852ZM94.5126 241.761C95.0506 242.988 95.5041 244.174 95.8642 245.302C94.6972 245.568 93.4372 245.783 92.1097 245.942C92.5275 245.28 92.9399 244.597 93.3452 243.894C93.7552 243.183 94.1445 242.471 94.5126 241.761ZM91.8558 243.035C91.2267 244.126 90.5807 245.167 89.925 246.15C88.7306 246.236 87.4967 246.28 86.2391 246.28C84.9866 246.28 83.7682 246.241 82.595 246.165C81.9128 245.169 81.2529 244.124 80.6277 243.044H80.6278C80.0043 241.968 79.4305 240.881 78.9105 239.802C79.4303 238.719 80.0027 237.632 80.6226 236.557L80.6225 236.557C81.244 235.479 81.8982 234.44 82.5741 233.45C83.7711 233.36 84.9986 233.312 86.239 233.312H86.2391C87.4852 233.312 88.7142 233.36 89.9109 233.451C90.5764 234.434 91.2262 235.47 91.8502 236.548C92.4813 237.638 93.061 238.718 93.5853 239.777C93.0626 240.855 92.4841 241.945 91.8558 243.035ZM95.4028 223.834C96.7506 224.612 97.2748 227.746 96.4279 231.857C96.3739 232.119 96.3131 232.386 96.247 232.657C94.5772 232.272 92.7639 231.985 90.8654 231.807C89.7595 230.232 88.6134 228.8 87.4631 227.561C87.7723 227.263 88.0812 226.979 88.3888 226.712C91.3602 224.126 94.1374 223.105 95.4028 223.834ZM86.2391 236.166C88.2241 236.166 89.8332 237.775 89.8332 239.76C89.8332 241.745 88.2241 243.354 86.2391 243.354C84.2542 243.354 82.645 241.745 82.645 239.76C82.645 237.775 84.2542 236.166 86.2391 236.166Z" fill="#7B4AE2" fill-opacity="0.5"/>
<g filter="url(#filter2_d_0_1)">
<circle cx="85.8102" cy="468.98" r="35.8102" fill="#090E16"/>
</g>
<g clip-path="url(#clip1_0_1)">
<path fill-rule="evenodd" clip-rule="evenodd" d="M79.8885 451.074C76.5939 451.074 73.9201 453.748 73.9201 457.043C73.9201 460.337 76.5939 463.011 79.8885 463.011C76.5939 463.011 73.9201 465.685 73.9201 468.98C73.9201 472.274 76.5939 474.948 79.8885 474.948C76.5939 474.948 73.9201 477.622 73.9201 480.916C73.9201 484.211 76.5939 486.885 79.8885 486.885C83.183 486.885 85.8568 484.211 85.8568 480.916L85.8568 468.98C85.8568 472.274 88.5307 474.948 91.8252 474.948C95.1198 474.948 97.7936 472.274 97.7936 468.98C97.7936 465.685 95.1198 463.011 91.8252 463.011C95.1198 463.011 97.7936 460.337 97.7936 457.043C97.7936 453.748 95.1198 451.074 91.8252 451.074H79.8885ZM91.8252 463.011H85.8568L85.8568 468.98C85.8568 465.685 88.5307 463.011 91.8252 463.011Z" fill="#7B4AE2" fill-opacity="0.5"/>
</g>
<defs>
<filter id="filter0_d_0_1" x="484.333" y="249.3" width="171.62" height="171.62" filterUnits="userSpaceOnUse" color-interpolation-filters="sRGB">
<feFlood flood-opacity="0" result="BackgroundImageFix"/>
<feColorMatrix in="SourceAlpha" type="matrix" values="0 0 0 0 0 0 0 0 0 0 0 0 0 0 0 0 0 0 127 0" result="hardAlpha"/>
<feOffset dy="4"/>
<feGaussianBlur stdDeviation="25"/>
<feComposite in2="hardAlpha" operator="out"/>
<feColorMatrix type="matrix" values="0 0 0 0 0 0 0 0 0 0 0 0 0 0 0 0 0 0 0.5 0"/>
<feBlend mode="normal" in2="BackgroundImageFix" result="effect1_dropShadow_0_1"/>
<feBlend mode="normal" in="SourceGraphic" in2="effect1_dropShadow_0_1" result="shape"/>
</filter>
<filter id="filter1_d_0_1" x="0" y="157.984" width="171.62" height="171.62" filterUnits="userSpaceOnUse" color-interpolation-filters="sRGB">
<feFlood flood-opacity="0" result="BackgroundImageFix"/>
<feColorMatrix in="SourceAlpha" type="matrix" values="0 0 0 0 0 0 0 0 0 0 0 0 0 0 0 0 0 0 127 0" result="hardAlpha"/>
<feOffset dy="4"/>
<feGaussianBlur stdDeviation="25"/>
<feComposite in2="hardAlpha" operator="out"/>
<feColorMatrix type="matrix" values="0 0 0 0 0 0 0 0 0 0 0 0 0 0 0 0 0 0 0.5 0"/>
<feBlend mode="normal" in2="BackgroundImageFix" result="effect1_dropShadow_0_1"/>
<feBlend mode="normal" in="SourceGraphic" in2="effect1_dropShadow_0_1" result="shape"/>
</filter>
<filter id="filter2_d_0_1" x="0" y="387.169" width="171.62" height="171.62" filterUnits="userSpaceOnUse" color-interpolation-filters="sRGB">
<feFlood flood-opacity="0" result="BackgroundImageFix"/>
<feColorMatrix in="SourceAlpha" type="matrix" values="0 0 0 0 0 0 0 0 0 0 0 0 0 0 0 0 0 0 127 0" result="hardAlpha"/>
<feOffset dy="4"/>
<feGaussianBlur stdDeviation="25"/>
<feComposite in2="hardAlpha" operator="out"/>
<feColorMatrix type="matrix" values="0 0 0 0 0 0 0 0 0 0 0 0 0 0 0 0 0 0 0.5 0"/>
<feBlend mode="normal" in2="BackgroundImageFix" result="effect1_dropShadow_0_1"/>
<feBlend mode="normal" in="SourceGraphic" in2="effect1_dropShadow_0_1" result="shape"/>
</filter>
<clipPath id="clip0_0_1">
<rect width="35.8102" height="35.8102" fill="white" transform="translate(552.238 313.205)"/>
</clipPath>
<clipPath id="clip1_0_1">
<rect width="35.8102" height="35.8102" fill="white" transform="translate(67.9051 451.074)"/>
</clipPath>
</defs>
</svg>