<svg version="1.1" xmlns="http://www.w3.org/2000/svg" viewBox="0 0 37 40" width="30" height="30">
<style type="text/css">
	.st0{fill:#FFFFFF;}
	.st1{fill:#7B4AE2;}
</style>
<path class="st0" d="M6.3,0c1.1,0,2.1,1,2.1,2.3L8.1,37.8C8.1,39,7.2,40,6,40c-0.3,0-0.6-0.1-0.8-0.2C4.5,39.5,4,38.7,4,37.7
	L4.2,2.2C4.2,1,5.1,0,6.3,0z"/>
<path class="st1" d="M17.9,15.2L17.9,15.2c-0.8-0.8-0.8-2.1,0-2.9L29.6,0.6c0.8-0.8,2.1-0.8,2.9,0l0,0c0.8,0.8,0.8,2.1,0,2.9
	L20.8,15.2C20,16,18.7,16,17.9,15.2z"/>
<path class="st0" d="M32.3,39.5L32.3,39.5c-0.8,0.8-2.2,0.8-3.1,0L11.5,21.8c-0.8-0.8-0.8-2.2,0-3.1l0,0c0.8-0.8,2.2-0.8,3.1,0
	l17.8,17.8C33.1,37.3,33.1,38.7,32.3,39.5z"/>
<path class="st0" d="M11.5,21.8L11.5,21.8c-0.8-0.8-0.8-2.2,0-3.1l2.7-2.7c0.8-0.8,2.2-0.8,3.1,0l0,0c0.8,0.8,0.8,2.2,0,3.1
	l-2.7,2.7C13.7,22.6,12.3,22.6,11.5,21.8z"/>
</svg>
